HIERARCHY
ROOT Yihan_28_06:Solving:Hips
{
	OFFSET 0.000000 0.000000 0.000000
	CHANNELS 6 Xposition Yposition Zposition Xrotation Yrotation Zrotation
	JOINT Yihan_28_06:Solving:Spine
	{
		OFFSET 0.000000 -10.933681 1.754050
		CHANNELS 6 Xposition Yposition Zposition Xrotation Yrotation Zrotation
		JOINT Yihan_28_06:Solving:Spine1
		{
			OFFSET 0.000000 -9.267541 1.634120
			CHANNELS 6 Xposition Yposition Zposition Xrotation Yrotation Zrotation
			JOINT Yihan_28_06:Solving:Spine2
			{
				OFFSET 0.000000 -9.374699 0.820182
				CHANNELS 6 Xposition Yposition Zposition Xrotation Yrotation Zrotation
				JOINT Yihan_28_06:Solving:Spine3
				{
					OFFSET 0.000000 -9.410507 0.000000
					CHANNELS 6 Xposition Yposition Zposition Xrotation Yrotation Zrotation
					JOINT Yihan_28_06:Solving:Neck
					{
						OFFSET 0.000000 -12.099224 -1.209920
						CHANNELS 6 Xposition Yposition Zposition Xrotation Yrotation Zrotation
						JOINT Yihan_28_06:Solving:Neck1
						{
							OFFSET 0.000000 -7.349789 -0.643021
							CHANNELS 6 Xposition Yposition Zposition Xrotation Yrotation Zrotation
							JOINT Yihan_28_06:Solving:Head
							{
								OFFSET 0.000000 -7.265778 -1.281152
								CHANNELS 6 Xposition Yposition Zposition Xrotation Yrotation Zrotation
								JOINT Yihan_28_06:Solving:HeadEnd
								{
									OFFSET 0.000000 -9.728081 0.000002
									CHANNELS 6 Xposition Yposition Zposition Xrotation Yrotation Zrotation
									End Site
									{
										OFFSET 0.000000 -9.728081 0.000002
									}
								}
							}
						}
					}
					JOINT Yihan_28_06:Solving:RightShoulder
					{
						OFFSET 0.000000 -8.642303 -5.270916
						CHANNELS 6 Xposition Yposition Zposition Xrotation Yrotation Zrotation
						JOINT Yihan_28_06:Solving:RightArm
						{
							OFFSET -17.619331 -0.000004 0.000000
							CHANNELS 6 Xposition Yposition Zposition Xrotation Yrotation Zrotation
							JOINT Yihan_28_06:Solving:RightForeArm
							{
								OFFSET -29.732449 -0.000008 0.000000
								CHANNELS 6 Xposition Yposition Zposition Xrotation Yrotation Zrotation
								JOINT Yihan_28_06:Solving:RightHand
								{
									OFFSET -23.617275 -0.000008 0.000000
									CHANNELS 6 Xposition Yposition Zposition Xrotation Yrotation Zrotation
									JOINT Yihan_28_06:Solving:RightHandThumb1
									{
										OFFSET -3.546165 2.953053 -2.636890
										CHANNELS 6 Xposition Yposition Zposition Xrotation Yrotation Zrotation
										End Site
										{
											OFFSET -5.198463 0.000000 -5.246530
										}
									}
									JOINT Yihan_28_06:Solving:RightHandMiddle1
									{
										OFFSET -9.456436 -0.000004 0.060618
										CHANNELS 6 Xposition Yposition Zposition Xrotation Yrotation Zrotation
										End Site
										{
											OFFSET -7.385803 -0.000004 0.000000
										}
									}
								}
							}
						}
					}
					JOINT Yihan_28_06:Solving:LeftShoulder
					{
						OFFSET 0.000000 -8.642303 -5.270916
						CHANNELS 6 Xposition Yposition Zposition Xrotation Yrotation Zrotation
						JOINT Yihan_28_06:Solving:LeftArm
						{
							OFFSET 17.619331 -0.000004 0.000000
							CHANNELS 6 Xposition Yposition Zposition Xrotation Yrotation Zrotation
							JOINT Yihan_28_06:Solving:LeftForeArm
							{
								OFFSET 29.732449 -0.000008 0.000000
								CHANNELS 6 Xposition Yposition Zposition Xrotation Yrotation Zrotation
								JOINT Yihan_28_06:Solving:LeftHand
								{
									OFFSET 23.617275 -0.000008 0.000000
									CHANNELS 6 Xposition Yposition Zposition Xrotation Yrotation Zrotation
									JOINT Yihan_28_06:Solving:LeftHandThumb1
									{
										OFFSET 3.546165 2.953053 -2.636890
										CHANNELS 6 Xposition Yposition Zposition Xrotation Yrotation Zrotation
										End Site
										{
											OFFSET 5.198463 0.000000 -5.246530
										}
									}
									JOINT Yihan_28_06:Solving:LeftHandMiddle1
									{
										OFFSET 9.456436 -0.000004 0.060618
										CHANNELS 6 Xposition Yposition Zposition Xrotation Yrotation Zrotation
										End Site
										{
											OFFSET 7.385803 -0.000004 0.000000
										}
									}
								}
							}
						}
					}
				}
			}
		}
	}
	JOINT Yihan_28_06:Solving:RightUpLeg
	{
		OFFSET -12.221851 0.000000 0.000000
		CHANNELS 6 Xposition Yposition Zposition Xrotation Yrotation Zrotation
		JOINT Yihan_28_06:Solving:RightLeg
		{
			OFFSET 0.000000 44.387260 -0.000006
			CHANNELS 6 Xposition Yposition Zposition Xrotation Yrotation Zrotation
			JOINT Yihan_28_06:Solving:RightFoot
			{
				OFFSET 0.000000 37.410240 -0.000006
				CHANNELS 6 Xposition Yposition Zposition Xrotation Yrotation Zrotation
				JOINT Yihan_28_06:Solving:RightForeFoot
				{
					OFFSET 0.000000 4.107742 -0.000000
					CHANNELS 6 Xposition Yposition Zposition Xrotation Yrotation Zrotation
					JOINT Yihan_28_06:Solving:RightToeBase
					{
						OFFSET 0.000000 0.000000 -16.087208
						CHANNELS 6 Xposition Yposition Zposition Xrotation Yrotation Zrotation
						JOINT Yihan_28_06:Solving:RightToeBaseEnd
						{
							OFFSET 0.000000 0.000000 -3.506769
							CHANNELS 6 Xposition Yposition Zposition Xrotation Yrotation Zrotation
							End Site
							{
								OFFSET 0.000000 -3.506767 0.000000
							}
						}
					}
				}
			}
		}
	}
	JOINT Yihan_28_06:Solving:LeftUpLeg
	{
		OFFSET 12.221851 0.000000 0.000000
		CHANNELS 6 Xposition Yposition Zposition Xrotation Yrotation Zrotation
		JOINT Yihan_28_06:Solving:LeftLeg
		{
			OFFSET 0.000000 44.387260 -0.000006
			CHANNELS 6 Xposition Yposition Zposition Xrotation Yrotation Zrotation
			JOINT Yihan_28_06:Solving:LeftFoot
			{
				OFFSET 0.000000 37.410240 -0.000006
				CHANNELS 6 Xposition Yposition Zposition Xrotation Yrotation Zrotation
				JOINT Yihan_28_06:Solving:LeftForeFoot
				{
					OFFSET 0.000000 4.107742 -0.000000
					CHANNELS 6 Xposition Yposition Zposition Xrotation Yrotation Zrotation
					JOINT Yihan_28_06:Solving:LeftToeBase
					{
						OFFSET 0.000000 0.000000 -16.087208
						CHANNELS 6 Xposition Yposition Zposition Xrotation Yrotation Zrotation
						JOINT Yihan_28_06:Solving:LeftToeBaseEnd
						{
							OFFSET 0.000000 0.000000 -3.932585
							CHANNELS 6 Xposition Yposition Zposition Xrotation Yrotation Zrotation
							End Site
							{
								OFFSET 0.000000 -3.932587 0.000000
							}
						}
					}
				}
			}
		}
	}
}
MOTION
Frames: 4
Frame Time: 0.041667
9.059424 -72.864265 -89.847855 85.019879 4.210512 1.188834 -0.000001 -10.933689 1.754048 9.941164 0.027897 0.364521 0.000002 -9.267567 1.634107 -1.322043 -0.107088 0.049606 0.000001 -9.374713 0.820192 -2.018722 -3.410809 -0.075556 -0.000000 -9.410498 0.000015 1.289613 -0.130838 0.347852 0.000001 -12.099236 -1.209932 -9.732121 -6.464929 1.583504 -0.000002 -7.349810 -0.643023 3.664956 -1.747648 0.084495 -0.000003 -7.265784 -1.281147 10.544853 -0.237076 0.147467 0.000005 -9.728073 0.000030 -0.000001 0.000001 0.000001 0.000000 -8.642311 -5.270938 -0.000004 14.080086 3.628155 -17.619337 -0.000004 0.000007 -5.627890 -25.152680 -79.230461 -29.732481 -0.000002 0.000003 4.768455 -12.409988 1.026991 -23.617292 -0.000014 -0.000007 2.550929 7.676482 -18.444531 -3.546179 2.953039 -2.636897 -0.000003 -0.000005 0.000001 -9.456458 0.000001 0.060615 0.000000 -0.000000 0.000001 -0.000001 -8.642323 -5.270937 -0.000007 -15.824476 -7.490901 17.619333 0.000017 0.000004 6.073664 31.637324 76.497866 29.732456 -0.000018 -0.000024 0.994757 24.754778 -0.416524 23.617302 -0.000005 -0.000005 -0.394769 -11.771268 -1.934310 3.546163 2.953047 -2.636872 -0.000001 -0.000003 0.000007 9.456437 0.000006 0.060632 0.000000 -0.000000 0.000002 -12.221852 -0.000015 -0.000006 9.762284 6.118435 -3.510710 0.000001 44.387253 -0.000029 0.547455 0.000001 0.000000 -0.000002 37.410259 0.000001 -2.192577 15.220532 1.553151 0.000007 4.107742 -0.000028 0.000000 0.000005 -0.000000 -0.000003 0.000011 -16.087202 16.292743 0.000005 -0.000001 -0.000004 0.000001 -3.506774 0.000004 -0.000004 -0.000000 12.221856 0.000002 -0.000006 10.813049 -17.717559 -1.264925 -0.000002 44.387257 0.000006 -3.701867 0.000001 0.000000 0.000002 37.410252 0.000010 0.725434 -1.329553 7.894257 -0.000004 4.107742 0.000004 0.000000 -0.000001 -0.000001 -0.000002 0.000010 -16.087223 -5.689147 -0.000001 -0.000000 -0.000003 -0.000000 -3.932584 0.000000 -0.000004 -0.000002 
9.123329 -72.842903 -89.849136 84.999341 4.072458 1.177095 0.000001 -10.933703 1.754069 9.965465 0.028710 0.376069 -0.000001 -9.267549 1.634123 -1.316259 -0.108949 0.051936 -0.000001 -9.374681 0.820178 -2.020139 -3.445586 -0.072462 -0.000001 -9.410522 0.000001 1.291663 -0.136384 0.344160 -0.000001 -12.099236 -1.209913 -9.666086 -6.436237 1.584068 -0.000003 -7.349815 -0.643026 3.696481 -1.637170 0.071442 0.000000 -7.265800 -1.281154 10.575456 -0.227273 0.130890 0.000002 -9.728065 -0.000001 -0.000001 0.000000 -0.000000 -0.000002 -8.642296 -5.270899 -0.000007 14.062641 3.611293 -17.619347 -0.000001 0.000004 -5.743871 -24.720005 -79.825937 -29.732452 -0.000018 0.000001 3.647612 -12.266210 0.775919 -23.617262 -0.000015 -0.000007 2.979732 8.311042 -19.804451 -3.546152 2.953052 -2.636888 -0.000002 -0.000005 -0.000003 -9.456444 -0.000001 0.060619 -0.000001 -0.000002 0.000000 -0.000003 -8.642307 -5.270906 -0.000009 -15.834868 -7.475925 17.619339 0.000020 -0.000007 6.132750 31.881004 76.912199 29.732437 -0.000008 -0.000005 0.709855 24.642969 -0.295950 23.617298 -0.000016 -0.000013 -0.397326 -11.797217 -1.942618 3.546160 2.953056 -2.636888 -0.000001 -0.000003 0.000002 9.456451 0.000006 0.060617 0.000000 -0.000001 0.000000 -12.221849 -0.000009 0.000013 9.747833 6.221687 -3.475751 -0.000001 44.387260 -0.000027 0.673613 -0.000002 -0.000000 -0.000002 37.410221 0.000006 -2.255994 15.282255 1.540911 -0.000001 4.107742 -0.000020 0.000000 0.000001 0.000000 -0.000010 0.000012 -16.087221 16.295745 0.000003 -0.000000 -0.000006 0.000009 -3.506774 0.000003 -0.000002 -0.000002 12.221850 -0.000022 0.000014 10.825941 -17.687232 -1.232503 -0.000005 44.387268 -0.000016 -3.682868 0.000003 0.000000 0.000004 37.410259 0.000014 0.706837 -1.217999 7.872774 0.000004 4.107742 -0.000003 -0.000000 -0.000001 0.000000 0.000007 0.000003 -16.087233 -5.678224 0.000003 0.000001 0.000004 -0.000015 -3.932572 0.000000 0.000000 -0.000000 
9.191431 -72.816315 -89.850983 84.969910 3.918307 1.156778 0.000000 -10.933686 1.754053 9.989359 0.026253 0.399053 -0.000001 -9.267544 1.634109 -1.308203 -0.109431 0.052127 -0.000001 -9.374719 0.820204 -2.022943 -3.465422 -0.070157 0.000001 -9.410515 0.000007 1.301268 -0.138161 0.338167 -0.000002 -12.099217 -1.209918 -9.599757 -6.383252 1.572270 0.000000 -7.349789 -0.643031 3.718665 -1.546196 0.066445 -0.000000 -7.265766 -1.281149 10.622075 -0.217303 0.112837 0.000003 -9.728050 0.000012 -0.000001 0.000000 0.000000 0.000002 -8.642273 -5.270923 -0.000012 14.061132 3.582086 -17.619343 -0.000028 -0.000009 -5.867486 -24.357582 -80.343816 -29.732460 -0.000015 0.000007 2.679659 -12.056307 0.560070 -23.617290 -0.000022 0.000003 3.376679 8.823004 -21.040391 -3.546174 2.953056 -2.636882 -0.000001 0.000005 -0.000000 -9.456468 0.000005 0.060612 -0.000003 -0.000001 -0.000001 0.000001 -8.642269 -5.270923 -0.000014 -15.833620 -7.455874 17.619335 -0.000031 -0.000009 6.215199 32.216387 77.250683 29.732458 -0.000007 -0.000013 0.436861 24.503935 -0.181148 23.617311 -0.000012 0.000007 -0.403341 -11.805152 -1.970681 3.546190 2.953034 -2.636884 0.000001 0.000002 0.000002 9.456474 -0.000018 0.060631 0.000000 -0.000000 -0.000000 -12.221853 -0.000018 0.000010 9.752782 6.232546 -3.431940 -0.000005 44.387249 -0.000007 0.771393 -0.000001 0.000001 -0.000001 37.410225 0.000007 -2.300077 15.442072 1.552235 -0.000005 4.107750 -0.000016 0.000000 0.000004 0.000000 0.000006 0.000003 -16.087244 16.193796 0.000002 -0.000003 0.000005 0.000007 -3.506784 -0.000003 -0.000002 0.000000 12.221851 -0.000004 -0.000004 10.845713 -17.743023 -1.188504 0.000008 44.387260 -0.000025 -3.656265 -0.000001 -0.000000 -0.000001 37.410259 -0.000005 0.688465 -1.004537 7.836176 -0.000002 4.107758 -0.000016 0.000000 0.000002 -0.000001 0.000001 0.000015 -16.087208 -5.707919 -0.000000 0.000000 0.000006 -0.000007 -3.932578 0.000000 0.000002 -0.000000 
9.260420 -72.792213 -89.852966 84.934925 3.751427 1.141461 0.000002 -10.933708 1.754056 10.020492 0.026976 0.414488 0.000002 -9.267551 1.634144 -1.302004 -0.110844 0.054568 -0.000000 -9.374694 0.820199 -2.022639 -3.477604 -0.069466 0.000000 -9.410502 0.000002 1.301525 -0.145253 0.336038 0.000002 -12.099237 -1.209926 -9.534115 -6.319436 1.572592 0.000000 -7.349823 -0.643039 3.770594 -1.455457 0.037902 -0.000003 -7.265829 -1.281166 10.653645 -0.209194 0.094353 0.000002 -9.728096 0.000011 -0.000001 0.000001 -0.000000 0.000000 -8.642330 -5.270938 -0.000005 14.040339 3.578046 -17.619341 -0.000049 0.000008 -5.962534 -24.096819 -80.819962 -29.732452 -0.000011 0.000003 1.669797 -11.831345 0.342428 -23.617296 -0.000007 -0.000008 3.749637 9.219508 -22.246998 -3.546173 2.953053 -2.636893 -0.000003 -0.000002 0.000001 -9.456472 -0.000003 0.060617 -0.000003 -0.000002 0.000002 -0.000001 -8.642326 -5.270938 -0.000004 -15.817905 -7.434027 17.619333 0.000008 -0.000019 6.314915 32.661978 77.511487 29.732447 -0.000023 0.000001 0.216425 24.345741 -0.089174 23.617264 -0.000008 -0.000015 -0.413393 -11.856922 -2.011098 3.546149 2.953047 -2.636885 -0.000003 0.000000 -0.000001 9.456435 -0.000009 0.060624 0.000002 0.000001 -0.000001 -12.221851 -0.000025 0.000007 9.744844 6.427184 -3.392930 -0.000001 44.387280 -0.000012 0.933337 0.000000 -0.000000 0.000003 37.410248 0.000000 -2.378784 15.442380 1.544607 0.000004 4.107742 -0.000007 -0.000000 -0.000000 0.000000 -0.000000 -0.000003 -16.087227 16.222522 -0.000001 -0.000000 0.000001 -0.000000 -3.506777 -0.000001 0.000001 0.000000 12.221851 -0.000017 0.000027 10.865013 -17.788280 -1.151956 -0.000001 44.387257 -0.000011 -3.627673 -0.000001 -0.000000 -0.000007 37.410252 0.000007 0.668555 -0.789440 7.808592 -0.000004 4.107742 -0.000005 -0.000000 -0.000003 0.000000 0.000001 0.000015 -16.087229 -5.721874 0.000003 -0.000000 0.000006 0.000000 -3.932577 0.000000 -0.000001 0.000000 
